<?xml version="1.0" standalone="no"?>
<!DOCTYPE svg PUBLIC "-//W3C//DTD SVG 20010904//EN"
 "http://www.w3.org/TR/2001/REC-SVG-20010904/DTD/svg10.dtd">
<svg version="1.0" xmlns="http://www.w3.org/2000/svg"
 width="895pt" height="1142pt" viewBox="0 0 895 1142"
 preserveAspectRatio="xMidYMid meet">

<g transform="translate(0.000000,842.000000) scale(0.100000,-0.100000)"
fill="#000000" stroke="none">
<path d="M1295 6100 c-13 -22 9 -30 83 -30 129 0 191 -30 232 -111 20 -37 20
-66 20 -1179 0 -1249 3 -1178 -58 -1244 -44 -46 -97 -66 -183 -66 -77 0 -106
-12 -90 -38 6 -9 90 -12 362 -10 346 3 354 3 354 23 0 18 -8 20 -95 25 -60 4
-106 12 -126 22 -44 24 -91 81 -104 125 -16 57 -9 2128 7 2128 7 0 283 -425
613 -945 640 -1006 651 -1022 795 -1125 211 -151 539 -246 855 -249 146 -1
160 1 234 27 129 46 224 93 344 173 326 217 546 539 607 888 19 114 19 327 0
442 -49 283 -163 502 -370 709 -169 170 -366 292 -596 368 -211 71 -224 72
-719 72 -389 0 -445 -2 -445 -15 0 -12 20 -16 101 -21 116 -6 158 -25 202 -92
l27 -41 6 -690 c6 -750 5 -725 66 -911 64 -198 148 -296 238 -279 47 8 106 53
143 107 55 80 72 151 82 346 9 191 22 260 51 287 18 16 20 16 45 -7 56 -52
145 -278 203 -514 35 -141 89 -268 122 -286 70 -37 128 66 192 336 47 197 61
331 61 570 1 231 -10 332 -46 440 -36 109 -91 137 -116 60 -8 -25 -17 -129
-22 -269 -5 -126 -14 -252 -20 -281 -12 -57 -42 -98 -65 -89 -22 9 -33 63 -55
275 -38 377 -84 425 -245 259 -60 -62 -139 -110 -183 -110 -53 0 -102 85 -102
176 0 65 36 188 80 271 22 42 40 89 40 105 0 25 -4 28 -31 28 -17 0 -58 -12
-90 -26 -72 -33 -100 -27 -154 29 -66 69 -160 276 -136 300 5 5 105 7 253 5
222 -5 252 -7 340 -31 345 -92 536 -353 613 -838 21 -133 30 -486 17 -649 -25
-297 -144 -667 -279 -866 -52 -77 -135 -154 -198 -185 -41 -20 -65 -24 -136
-24 -78 0 -91 3 -160 37 -196 98 -431 346 -742 787 -281 397 -668 1033 -986
1619 -46 84 -95 161 -108 172 -25 19 -42 20 -374 20 -221 0 -350 -4 -354 -10z"/>
</g>
</svg>
